<?xml version="1.0" standalone="no"?>
<!DOCTYPE svg PUBLIC "-//W3C//DTD SVG 20010904//EN"
 "http://www.w3.org/TR/2001/REC-SVG-20010904/DTD/svg10.dtd">
<svg version="1.0" xmlns="http://www.w3.org/2000/svg"
 width="800.000000pt" height="137.000000pt" viewBox="0 0 800.000000 137.000000"
 preserveAspectRatio="xMidYMid meet">

<g transform="translate(0.000000,137.000000) scale(0.100000,-0.100000)"
fill="#000000" stroke="none">
<path d="M1961 1272 c-81 -13 -125 -106 -86 -182 22 -42 53 -60 106 -60 111 0
168 129 91 203 -31 30 -74 45 -111 39z"/>
<path d="M423 1159 c-143 -17 -274 -115 -341 -256 -33 -71 -37 -87 -40 -180
-4 -83 0 -115 17 -171 67 -223 273 -349 511 -314 227 33 344 173 366 439 l7
83 -222 0 -221 0 0 -90 0 -90 104 0 105 0 -10 -32 c-21 -75 -105 -128 -201
-128 -155 1 -235 99 -232 286 2 122 51 216 131 250 43 19 145 18 191 -1 20 -9
56 -34 78 -57 l42 -40 86 47 86 47 -19 26 c-102 142 -250 202 -438 181z"/>
<path d="M2638 1158 c-141 -18 -259 -122 -294 -259 -14 -53 -14 -72 -4 -117
17 -75 64 -118 187 -171 107 -47 133 -64 133 -93 0 -56 -54 -88 -149 -88 -68
0 -100 10 -154 47 -22 15 -41 22 -46 17 -4 -5 -31 -42 -60 -82 -60 -84 -62
-76 39 -131 227 -122 546 8 588 240 11 62 -2 134 -32 173 -23 31 -116 86 -196
116 -91 35 -114 80 -65 132 44 48 109 48 198 0 55 -30 49 -33 121 70 l47 67
-74 36 c-83 41 -155 54 -239 43z"/>
<path d="M5821 718 c-47 -233 -86 -431 -89 -441 -4 -15 6 -17 100 -17 l105 0
42 212 c46 233 63 272 124 301 53 26 113 22 142 -8 14 -13 25 -35 25 -48 0
-13 -20 -121 -44 -240 l-43 -218 106 3 105 3 52 260 c61 306 60 335 -18 400
-42 36 -71 46 -133 46 -71 1 -124 -17 -184 -62 -31 -24 -51 -33 -51 -25 0 12
32 176 45 234 5 22 4 22 -97 22 l-103 0 -84 -422z"/>
<path d="M3356 968 c-212 -27 -378 -224 -377 -448 0 -117 37 -188 119 -233 59
-31 98 -40 185 -39 90 1 181 32 255 86 58 44 98 83 91 90 -18 17 -124 86 -132
86 -5 0 -25 -14 -45 -31 -67 -59 -142 -74 -208 -43 -36 17 -64 58 -64 94 0 20
5 20 244 20 149 0 247 4 251 10 13 22 17 180 6 227 -34 137 -153 203 -325 181z
m86 -179 c16 -9 48 -64 48 -84 0 -3 -61 -5 -135 -5 -74 0 -135 3 -135 8 0 15
46 62 75 77 35 17 117 20 147 4z"/>
<path d="M4132 968 c-291 -43 -482 -475 -290 -655 85 -80 261 -83 372 -8 20
14 39 25 42 25 3 0 2 -16 -2 -35 l-6 -36 103 3 103 3 68 335 c37 184 67 341
68 348 0 9 -26 12 -100 12 l-99 0 -7 -35 c-3 -19 -8 -35 -11 -35 -2 0 -14 9
-26 21 -56 53 -122 71 -215 57z m99 -188 c19 -5 48 -24 65 -41 26 -27 29 -37
29 -97 -1 -56 -5 -74 -28 -109 -39 -62 -96 -96 -165 -100 -67 -4 -97 9 -129
56 -65 96 14 262 139 291 46 11 49 11 89 0z"/>
<path d="M5095 971 c-50 -12 -89 -37 -130 -82 l-38 -42 7 39 c4 21 9 47 12 57
5 15 -4 17 -95 17 -96 0 -101 -1 -106 -22 -6 -25 -135 -670 -135 -675 0 -2 47
-3 104 -3 l103 0 32 163 c18 89 39 186 47 214 28 99 104 153 194 138 l37 -6
17 88 c9 48 19 96 22 106 6 19 -16 21 -71 8z"/>
<path d="M5525 969 c-106 -15 -184 -58 -268 -148 -71 -76 -110 -166 -115 -267
-7 -136 37 -222 141 -276 60 -31 182 -36 262 -11 l60 19 18 88 c11 48 17 89
14 92 -2 2 -23 -3 -47 -11 -54 -19 -143 -19 -179 -1 -61 32 -83 124 -46 197
22 43 72 96 108 115 41 22 117 19 171 -5 34 -15 48 -17 51 -8 7 21 35 168 35
183 0 25 -122 45 -205 33z"/>
<path d="M6956 968 c-212 -27 -378 -224 -377 -448 0 -117 37 -188 119 -233 59
-31 98 -40 185 -39 90 1 181 32 255 86 58 44 98 83 91 90 -18 17 -124 86 -132
86 -5 0 -25 -14 -45 -31 -67 -59 -142 -74 -208 -43 -36 17 -64 58 -64 94 0 20
5 20 244 20 149 0 247 4 251 10 13 22 17 180 6 227 -34 137 -153 203 -325 181z
m86 -179 c16 -9 48 -64 48 -84 0 -3 -61 -5 -135 -5 -74 0 -135 3 -135 8 0 15
46 62 75 77 35 17 117 20 147 4z"/>
<path d="M7664 969 c-148 -19 -264 -133 -264 -262 0 -90 32 -124 170 -179 74
-29 85 -36 88 -60 7 -58 -105 -82 -154 -33 -14 14 -27 25 -30 25 -13 0 -164
-74 -164 -80 0 -4 13 -26 30 -48 46 -64 78 -77 195 -77 87 0 107 3 155 26 77
36 115 71 146 135 22 46 26 64 22 116 -4 57 -7 64 -46 98 -25 23 -75 50 -126
69 -46 17 -87 39 -90 48 -4 9 1 26 9 39 22 34 88 34 118 0 l21 -24 48 19 c26
10 63 25 83 33 l36 15 -20 39 c-18 36 -72 91 -89 92 -4 1 -25 4 -47 8 -22 4
-63 5 -91 1z"/>
<path d="M1072 718 c3 -233 5 -256 24 -298 29 -61 78 -108 144 -139 48 -23 68
-26 160 -26 88 0 113 4 155 23 60 28 109 73 138 127 21 38 22 56 25 303 l3
262 -100 0 -100 0 -3 -241 -3 -241 -28 -24 c-51 -44 -167 -27 -199 29 -9 15
-14 88 -16 250 l-4 227 -99 0 -100 0 3 -252z"/>
<path d="M1880 610 l0 -350 100 0 100 0 0 350 0 350 -100 0 -100 0 0 -350z"/>
</g>
</svg>
